solid Exported from Blender-2.82 (sub 7)
facet normal 0.000000 -0.000000 -1.000000
outer loop
vertex -64.298424 49.457760 0.000000
vertex -64.391991 52.397903 0.000000
vertex -63.493652 55.210941 0.000000
endloop
endfacet
facet normal 0.000000 -0.000000 -1.000000
outer loop
vertex -63.493652 55.210941 0.000000
vertex -61.786270 57.614948 0.000000
vertex -59.426987 59.388454 0.000000
endloop
endfacet
facet normal -0.000000 0.000000 -1.000000
outer loop
vertex -59.426987 59.388454 0.000000
vertex -56.621933 60.340797 0.000000
vertex -52.900696 60.085892 0.000000
endloop
endfacet
facet normal 0.000001 0.000001 -1.000000
outer loop
vertex -52.900696 60.085892 0.000000
vertex -48.686962 58.054897 0.000000
vertex -44.230827 55.662758 0.000000
endloop
endfacet
facet normal -0.000001 -0.000001 -1.000000
outer loop
vertex -44.230827 55.662758 0.000000
vertex -39.858337 53.193455 0.000000
vertex -35.519032 50.694897 0.000000
endloop
endfacet
facet normal 0.000002 0.000003 -1.000000
outer loop
vertex -44.230827 55.662758 0.000000
vertex -35.519032 50.694897 0.000000
vertex -31.191372 48.194656 0.000000
endloop
endfacet
facet normal 0.000000 -0.000000 -1.000000
outer loop
vertex -59.426987 59.388454 0.000000
vertex -52.900696 60.085892 0.000000
vertex -44.230827 55.662758 0.000000
endloop
endfacet
facet normal -0.000000 -0.000000 -1.000000
outer loop
vertex -64.298424 49.457760 0.000000
vertex -63.493652 55.210941 0.000000
vertex -59.426987 59.388454 0.000000
endloop
endfacet
facet normal 0.000001 0.000000 -1.000000
outer loop
vertex -62.292282 41.997742 0.000000
vertex -63.723244 46.891258 0.000000
vertex -64.298424 49.457760 0.000000
endloop
endfacet
facet normal -0.000000 0.000000 -1.000000
outer loop
vertex -58.010006 32.641617 0.000000
vertex -60.406349 37.176285 0.000000
vertex -62.292282 41.997742 0.000000
endloop
endfacet
facet normal 0.000000 0.000000 -1.000000
outer loop
vertex -52.389458 24.139147 0.000000
vertex -55.342670 28.319742 0.000000
vertex -58.010006 32.641617 0.000000
endloop
endfacet
facet normal 0.000000 0.000000 -1.000000
outer loop
vertex -45.428314 16.624519 0.000000
vertex -49.068127 20.224586 0.000000
vertex -52.389458 24.139147 0.000000
endloop
endfacet
facet normal -0.000000 0.000000 -1.000000
outer loop
vertex -37.416645 10.294415 0.000000
vertex -41.541920 13.314928 0.000000
vertex -45.428314 16.624519 0.000000
endloop
endfacet
facet normal -0.000000 -0.000000 -1.000000
outer loop
vertex -28.583179 5.199912 0.000000
vertex -33.083984 7.593183 0.000000
vertex -37.416645 10.294415 0.000000
endloop
endfacet
facet normal 0.000000 0.000000 -1.000000
outer loop
vertex -19.009775 1.534096 0.000000
vertex -23.908400 3.109988 0.000000
vertex -28.583179 5.199912 0.000000
endloop
endfacet
facet normal 0.000000 0.000000 -1.000000
outer loop
vertex -9.119256 -0.742847 0.000000
vertex -14.096691 0.272147 0.000000
vertex -19.009775 1.534096 0.000000
endloop
endfacet
facet normal 0.000000 0.000001 -1.000000
outer loop
vertex -4.015575 -1.429331 0.000000
vertex -6.594214 -1.141373 0.000000
vertex -9.119256 -0.742847 0.000000
endloop
endfacet
facet normal 0.000000 -0.000001 -1.000000
outer loop
vertex 0.991667 -1.500000 0.000000
vertex -1.522222 -1.500000 0.000000
vertex -4.015575 -1.429331 0.000000
endloop
endfacet
facet normal 0.000000 0.684345 -0.729158
outer loop
vertex 8.500000 -1.500000 0.000000
vertex 3.500000 -1.500000 0.000000
vertex 0.991667 -1.500000 0.000000
endloop
endfacet
facet normal 0.000000 0.000000 0.000000
outer loop
vertex 23.500002 -1.500000 0.000000
vertex 18.500000 -1.500000 0.000000
vertex 13.500000 -1.500000 0.000000
endloop
endfacet
facet normal 0.000000 -0.000001 -1.000000
outer loop
vertex 8.500000 -1.500000 0.000000
vertex 0.991667 -1.500000 0.000000
vertex -4.015575 -1.429331 0.000000
endloop
endfacet
facet normal 0.000000 0.001502 -0.999999
outer loop
vertex 28.510895 -1.499960 0.000000
vertex 23.500002 -1.500000 0.000000
vertex 13.500000 -1.500000 0.000000
endloop
endfacet
facet normal 0.000000 -0.000001 -1.000000
outer loop
vertex 13.500000 -1.500000 0.000000
vertex 8.500000 -1.500000 0.000000
vertex -4.015575 -1.429331 0.000000
endloop
endfacet
facet normal 0.000000 0.000000 -1.000000
outer loop
vertex -4.015575 -1.429331 0.000000
vertex -9.119256 -0.742847 0.000000
vertex -19.009775 1.534096 0.000000
endloop
endfacet
facet normal 0.000000 0.000000 -1.000000
outer loop
vertex -19.009775 1.534096 0.000000
vertex -28.583179 5.199912 0.000000
vertex -37.416645 10.294415 0.000000
endloop
endfacet
facet normal -0.000000 -0.000000 -1.000000
outer loop
vertex -37.416645 10.294415 0.000000
vertex -45.428314 16.624519 0.000000
vertex -52.389458 24.139147 0.000000
endloop
endfacet
facet normal 0.000000 0.000000 -1.000000
outer loop
vertex -52.389458 24.139147 0.000000
vertex -58.010006 32.641617 0.000000
vertex -62.292282 41.997742 0.000000
endloop
endfacet
facet normal -0.000000 -0.000000 -1.000000
outer loop
vertex -62.292282 41.997742 0.000000
vertex -64.298424 49.457760 0.000000
vertex -59.426987 59.388454 0.000000
endloop
endfacet
facet normal 0.000000 0.000000 -1.000000
outer loop
vertex -59.426987 59.388454 0.000000
vertex -44.230827 55.662758 0.000000
vertex -31.191372 48.194656 0.000000
endloop
endfacet
facet normal 0.000000 0.000000 -1.000000
outer loop
vertex -59.426987 59.388454 0.000000
vertex -31.191372 48.194656 0.000000
vertex -26.861738 45.716633 0.000000
endloop
endfacet
facet normal -0.000000 -0.000000 -1.000000
outer loop
vertex -52.389458 24.139147 0.000000
vertex -62.292282 41.997742 0.000000
vertex -59.426987 59.388454 0.000000
endloop
endfacet
facet normal 0.000000 0.000000 -1.000000
outer loop
vertex -19.009775 1.534096 0.000000
vertex -37.416645 10.294415 0.000000
vertex -52.389458 24.139147 0.000000
endloop
endfacet
facet normal 0.000000 0.000000 -1.000000
outer loop
vertex 13.500000 -1.500000 0.000000
vertex -4.015575 -1.429331 0.000000
vertex -19.009775 1.534096 0.000000
endloop
endfacet
facet normal 0.000000 -0.000002 -1.000000
outer loop
vertex 31.195904 -1.396204 0.000000
vertex 28.510895 -1.499960 0.000000
vertex 13.500000 -1.500000 0.000000
endloop
endfacet
facet normal -0.000000 0.000000 -1.000000
outer loop
vertex 36.443439 1.110198 0.000000
vertex 34.020447 -0.557565 0.000000
vertex 31.195904 -1.396204 0.000000
endloop
endfacet
facet normal -0.000000 0.000000 -1.000000
outer loop
vertex 39.286354 6.187331 0.000000
vertex 38.256908 3.423335 0.000000
vertex 36.443439 1.110198 0.000000
endloop
endfacet
facet normal 0.000000 0.000000 -1.000000
outer loop
vertex 38.578945 11.974677 0.000000
vertex 39.421341 9.142502 0.000000
vertex 39.286354 6.187331 0.000000
endloop
endfacet
facet normal 0.000000 0.000000 -1.000000
outer loop
vertex 19.273411 17.557274 0.000000
vertex 38.578945 11.974677 0.000000
vertex 39.286354 6.187331 0.000000
endloop
endfacet
facet normal 0.000000 0.000000 -1.000000
outer loop
vertex 39.286354 6.187331 0.000000
vertex 36.443439 1.110198 0.000000
vertex 31.195904 -1.396204 0.000000
endloop
endfacet
facet normal -0.000000 -0.000000 -1.000000
outer loop
vertex 31.195904 -1.396204 0.000000
vertex 13.500000 -1.500000 0.000000
vertex -19.009775 1.534096 0.000000
endloop
endfacet
facet normal -0.000000 -0.000000 -1.000000
outer loop
vertex -19.009775 1.534096 0.000000
vertex -52.389458 24.139147 0.000000
vertex -59.426987 59.388454 0.000000
endloop
endfacet
facet normal -0.000000 -0.000000 -1.000000
outer loop
vertex -59.426987 59.388454 0.000000
vertex -26.861738 45.716633 0.000000
vertex -22.517485 43.293503 0.000000
endloop
endfacet
facet normal 0.000000 0.000000 -1.000000
outer loop
vertex -59.426987 59.388454 0.000000
vertex -22.517485 43.293503 0.000000
vertex -18.146212 40.991486 0.000000
endloop
endfacet
facet normal -0.000000 -0.000000 -1.000000
outer loop
vertex 31.195904 -1.396204 0.000000
vertex -19.009775 1.534096 0.000000
vertex -59.426987 59.388454 0.000000
endloop
endfacet
facet normal 0.000000 0.000000 -1.000000
outer loop
vertex 19.273411 17.557274 0.000000
vertex 39.286354 6.187331 0.000000
vertex 31.195904 -1.396204 0.000000
endloop
endfacet
facet normal 0.000000 0.000000 -1.000000
outer loop
vertex 17.340878 18.127705 0.000000
vertex 19.273411 17.557274 0.000000
vertex 31.195904 -1.396204 0.000000
endloop
endfacet
facet normal 0.000000 0.000000 -1.000000
outer loop
vertex 31.195904 -1.396204 0.000000
vertex -59.426987 59.388454 0.000000
vertex -18.146212 40.991486 0.000000
endloop
endfacet
facet normal 0.000000 0.000000 -1.000000
outer loop
vertex 31.195904 -1.396204 0.000000
vertex -18.146212 40.991486 0.000000
vertex -15.954605 39.923027 0.000000
endloop
endfacet
facet normal -0.000000 -0.000000 -1.000000
outer loop
vertex 17.340878 18.127705 0.000000
vertex 31.195904 -1.396204 0.000000
vertex -15.954605 39.923027 0.000000
endloop
endfacet
facet normal 0.000000 0.000000 -1.000000
outer loop
vertex 17.340878 18.127705 0.000000
vertex -15.954605 39.923027 0.000000
vertex -13.785707 39.019966 0.000000
endloop
endfacet
facet normal -0.000000 -0.000000 -1.000000
outer loop
vertex 15.676103 19.246145 0.000000
vertex 36.937592 14.417009 0.000000
vertex 21.589478 17.499996 0.000000
endloop
endfacet
facet normal 0.000000 0.000000 1.000000
outer loop
vertex -9.337270 38.500000 0.000000
vertex -4.337262 38.500000 0.000000
vertex 0.662741 38.500000 0.000000
endloop
endfacet
facet normal -0.000000 0.000000 -1.000000
outer loop
vertex 0.662741 38.500000 0.000000
vertex 3.192193 38.499710 0.000000
vertex 5.965965 38.257988 0.000000
endloop
endfacet
facet normal -0.000000 -0.000000 -1.000000
outer loop
vertex 5.965965 38.257988 0.000000
vertex 8.702250 37.187775 0.000000
vertex 11.002307 35.358891 0.000000
endloop
endfacet
facet normal -0.000000 0.000000 -1.000000
outer loop
vertex 11.002307 35.358891 0.000000
vertex 12.648428 32.905231 0.000000
vertex 13.406133 30.063768 0.000000
endloop
endfacet
facet normal 0.000001 0.000000 -1.000000
outer loop
vertex 13.406133 30.063768 0.000000
vertex 13.495096 27.389950 0.000000
vertex 13.497517 24.915182 0.000000
endloop
endfacet
facet normal -0.000000 -0.000000 -1.000000
outer loop
vertex 11.002307 35.358891 0.000000
vertex 13.406133 30.063768 0.000000
vertex 13.497517 24.915182 0.000000
endloop
endfacet
facet normal -0.000000 -0.000000 -1.000000
outer loop
vertex 0.662741 38.500000 0.000000
vertex 5.965965 38.257988 0.000000
vertex 11.002307 35.358891 0.000000
endloop
endfacet
facet normal 0.000000 0.000000 -1.000000
outer loop
vertex -9.337270 38.500000 0.000000
vertex 0.662741 38.500000 0.000000
vertex 11.002307 35.358891 0.000000
endloop
endfacet
facet normal 0.000000 0.000000 -1.000000
outer loop
vertex 11.002307 35.358891 0.000000
vertex 13.497517 24.915182 0.000000
vertex 13.668469 22.727350 0.000000
endloop
endfacet
facet normal -0.000000 -0.000000 -1.000000
outer loop
vertex 14.406446 20.837786 0.000000
vertex 31.870163 17.294333 0.000000
vertex 29.103510 17.497070 0.000000
endloop
endfacet
facet normal -0.000000 0.000000 -1.000000
outer loop
vertex -9.337270 38.500000 0.000000
vertex 11.002307 35.358891 0.000000
vertex 13.668469 22.727350 0.000000
endloop
endfacet
facet normal -0.000000 -0.000000 -1.000000
outer loop
vertex -9.337270 38.500000 0.000000
vertex 13.668469 22.727350 0.000000
vertex 14.406446 20.837786 0.000000
endloop
endfacet
facet normal 0.000000 0.000000 -1.000000
outer loop
vertex -11.679993 38.544266 0.000000
vertex -9.337270 38.500000 0.000000
vertex 14.406446 20.837786 0.000000
endloop
endfacet
facet normal -0.000000 0.000000 -1.000000
outer loop
vertex 29.103510 17.497070 0.000000
vertex 34.632416 16.248745 0.000000
vertex 26.586468 17.500000 0.000000
endloop
endfacet
facet normal -0.000000 -0.000000 -1.000000
outer loop
vertex -13.785707 39.019966 0.000000
vertex -11.679993 38.544266 0.000000
vertex 14.406446 20.837786 0.000000
endloop
endfacet
facet normal -0.000000 -0.000000 -1.000000
outer loop
vertex 14.406446 20.837786 0.000000
vertex 29.103510 17.497070 0.000000
vertex 26.586468 17.500000 0.000000
endloop
endfacet
facet normal 0.000000 -0.000000 -1.000000
outer loop
vertex 26.586468 17.500000 0.000000
vertex 24.086468 17.500000 0.000000
vertex 15.676103 19.246145 0.000000
endloop
endfacet
facet normal 0.000000 0.000000 -1.000000
outer loop
vertex 15.676103 19.246145 0.000000
vertex 21.589478 17.499996 0.000000
vertex 17.340878 18.127705 0.000000
endloop
endfacet
facet normal 0.000000 -0.000000 -1.000000
outer loop
vertex 14.406446 20.837786 0.000000
vertex 26.586468 17.500000 0.000000
vertex 15.676103 19.246145 0.000000
endloop
endfacet
facet normal 0.000045 0.000067 -1.000000
outer loop
vertex 15.676103 19.246145 0.000000
vertex 17.340878 18.127705 0.000000
vertex -13.785707 39.019966 0.000000
endloop
endfacet
facet normal -0.000000 -0.000000 -1.000000
outer loop
vertex -13.785707 39.019966 0.000000
vertex 14.406446 20.837786 0.000000
vertex 15.676103 19.246145 0.000000
endloop
endfacet
endsolid Exported from Blender-2.82 (sub 7)
