solid Exported from Blender-2.82 (sub 7)
facet normal -0.000000 -0.000000 -1.000000
outer loop
vertex 66.773682 14.777944 0.000000
vertex 68.416977 12.403251 -0.000000
vertex 69.314423 9.617207 0.000000
endloop
endfacet
facet normal 0.000000 0.000000 -1.000000
outer loop
vertex 69.314423 9.617207 0.000000
vertex 69.409256 6.712276 0.000000
vertex 68.594444 3.854880 0.000000
endloop
endfacet
facet normal -0.010177 0.013632 -0.999855
outer loop
vertex -18.739132 4.592664 0.915346
vertex 66.913811 1.401337 0.000000
vertex 64.541901 -0.369411 0.000000
endloop
endfacet
facet normal -0.010469 0.001308 -0.999944
outer loop
vertex 69.314423 9.617207 0.000000
vertex 68.594444 3.854880 0.000000
vertex -18.739132 4.592664 0.915346
endloop
endfacet
facet normal 0.000000 0.000000 -1.000000
outer loop
vertex 64.771362 16.635303 -0.000000
vertex 66.773682 14.777944 0.000000
vertex 69.314423 9.617207 0.000000
endloop
endfacet
facet normal 0.000001 0.000002 -1.000000
outer loop
vertex 58.550827 21.019939 -0.000000
vertex 62.683960 18.187683 -0.000000
vertex 64.771362 16.635303 -0.000000
endloop
endfacet
facet normal -0.000000 0.000000 -1.000000
outer loop
vertex 26.728333 17.807056 -0.000000
vertex 54.522823 23.911497 -0.000000
vertex 58.550827 21.019939 -0.000000
endloop
endfacet
facet normal 0.000000 -0.000000 -1.000000
outer loop
vertex 24.693386 17.535553 -0.000000
vertex 28.698772 18.613066 -0.000000
vertex 26.728333 17.807056 -0.000000
endloop
endfacet
facet normal -0.000000 0.000000 -1.000000
outer loop
vertex 22.733564 17.892670 -0.000000
vertex 30.462151 19.851341 0.000000
vertex 24.693386 17.535553 -0.000000
endloop
endfacet
facet normal -0.000000 0.000000 -1.000000
outer loop
vertex 31.865313 21.461483 -0.000000
vertex 50.276180 26.805559 -0.000000
vertex 22.733564 17.892670 -0.000000
endloop
endfacet
facet normal -0.000000 0.000000 -1.000000
outer loop
vertex 33.267113 23.578606 -0.000000
vertex 48.034672 28.099804 -0.000000
vertex 20.964149 18.931564 -0.000000
endloop
endfacet
facet normal 0.000000 -0.000000 -1.000000
outer loop
vertex 20.964149 18.931564 -0.000000
vertex 31.865313 21.461483 -0.000000
vertex 22.733564 17.892670 -0.000000
endloop
endfacet
facet normal -0.000000 0.000002 -1.000000
outer loop
vertex 24.693386 17.535553 -0.000000
vertex 26.728333 17.807056 -0.000000
vertex 58.550827 21.019939 -0.000000
endloop
endfacet
facet normal 0.000000 0.000000 -1.000000
outer loop
vertex 24.693386 17.535553 -0.000000
vertex 58.550827 21.019939 -0.000000
vertex 64.771362 16.635303 -0.000000
endloop
endfacet
facet normal -0.010024 -0.006489 -0.999929
outer loop
vertex 64.771362 16.635303 -0.000000
vertex 69.314423 9.617207 0.000000
vertex -18.739132 4.592664 0.915346
endloop
endfacet
facet normal -0.009364 0.027229 -0.999585
outer loop
vertex -18.739132 4.592664 0.915346
vertex 64.541901 -0.369411 0.000000
vertex 61.755932 -1.327508 0.000000
endloop
endfacet
facet normal 0.000000 -0.000002 -1.000000
outer loop
vertex 61.755932 -1.327508 0.000000
vertex 58.616280 -1.499873 0.000000
vertex 54.000000 -1.500000 0.000000
endloop
endfacet
facet normal 0.000000 0.000000 0.000000
outer loop
vertex 54.000000 -1.500000 0.000000
vertex 49.000000 -1.500000 0.000000
vertex 44.000000 -1.500000 0.000000
endloop
endfacet
facet normal 0.000000 0.000000 0.000000
outer loop
vertex 39.000000 -1.500000 0.000000
vertex 34.000000 -1.500000 0.000000
vertex 29.000000 -1.500000 0.000000
endloop
endfacet
facet normal 0.000000 -0.000001 -1.000000
outer loop
vertex 61.755932 -1.327508 0.000000
vertex 54.000000 -1.500000 0.000000
vertex 44.000000 -1.500000 0.000000
endloop
endfacet
facet normal 0.000000 0.000000 0.000000
outer loop
vertex 44.000000 -1.500000 0.000000
vertex 39.000000 -1.500000 0.000000
vertex 29.000000 -1.500000 0.000000
endloop
endfacet
facet normal 0.000000 0.000000 0.000000
outer loop
vertex 29.000000 -1.500000 0.000000
vertex 24.000000 -1.500000 0.000000
vertex 19.000000 -1.500000 0.000000
endloop
endfacet
facet normal 0.000000 0.000000 0.000000
outer loop
vertex 19.000000 -1.500000 0.000000
vertex 13.999999 -1.500000 0.000000
vertex 11.000000 -1.500000 0.000000
endloop
endfacet
facet normal 0.000000 0.000000 0.000000
outer loop
vertex 19.000000 -1.500000 0.000000
vertex 11.000000 -1.500000 0.000000
vertex 8.000000 -1.500000 0.000000
endloop
endfacet
facet normal 0.000000 -0.000001 -1.000000
outer loop
vertex 61.755932 -1.327508 0.000000
vertex 44.000000 -1.500000 0.000000
vertex 29.000000 -1.500000 0.000000
endloop
endfacet
facet normal 0.000000 0.000000 0.000000
outer loop
vertex 19.000000 -1.500000 0.000000
vertex 8.000000 -1.500000 0.000000
vertex 4.000000 -1.500000 0.000000
endloop
endfacet
facet normal 0.000000 -0.000001 -1.000000
outer loop
vertex 61.755932 -1.327508 0.000000
vertex 29.000000 -1.500000 0.000000
vertex 19.000000 -1.500000 0.000000
endloop
endfacet
facet normal -0.001474 -0.065623 -0.997843
outer loop
vertex 24.693386 17.535553 -0.000000
vertex 64.771362 16.635303 -0.000000
vertex -18.739132 4.592664 0.915346
endloop
endfacet
facet normal -0.000585 0.145025 -0.989428
outer loop
vertex -18.739132 4.592664 0.915346
vertex 61.755932 -1.327508 0.000000
vertex 19.000000 -1.500000 0.000000
endloop
endfacet
facet normal -0.006519 -0.999486 -0.031377
outer loop
vertex 4.000000 -1.500000 0.000000
vertex 1.000000 -1.509168 0.915347
vertex -2.053847 -1.489250 0.915347
endloop
endfacet
facet normal 0.000000 0.148570 -0.988902
outer loop
vertex -18.739132 4.592664 0.915346
vertex 19.000000 -1.500000 0.000000
vertex 4.000000 -1.500000 0.000000
endloop
endfacet
facet normal -0.007989 -0.043843 -0.999006
outer loop
vertex 22.733564 17.892670 -0.000000
vertex 24.693386 17.535553 -0.000000
vertex -18.739132 4.592664 0.915346
endloop
endfacet
facet normal 0.000000 -0.000000 -1.000000
outer loop
vertex 45.435436 29.188293 -0.000000
vertex 33.267113 23.578606 -0.000000
vertex 20.964149 18.931564 -0.000000
endloop
endfacet
facet normal -0.014269 -0.024302 -0.999603
outer loop
vertex 20.964149 18.931564 -0.000000
vertex 22.733564 17.892670 -0.000000
vertex -18.739132 4.592664 0.915346
endloop
endfacet
facet normal -0.138885 -0.381022 -0.914075
outer loop
vertex -18.739132 4.592664 0.915346
vertex 4.000000 -1.500000 0.000000
vertex -2.053847 -1.489250 0.915347
endloop
endfacet
facet normal 0.000000 -0.000019 -1.000000
outer loop
vertex -4.533961 -1.489401 0.915347
vertex -7.038819 -1.509220 0.915347
vertex -9.585269 -1.500852 0.915346
endloop
endfacet
facet normal 0.000000 0.000000 -1.000000
outer loop
vertex -18.739132 4.592664 0.915346
vertex -2.053847 -1.489250 0.915347
vertex -4.533961 -1.489401 0.915347
endloop
endfacet
facet normal -0.153039 0.365132 -0.918291
outer loop
vertex 45.435436 29.188293 -0.000000
vertex 20.964149 18.931564 -0.000000
vertex -18.739132 4.592664 0.915346
endloop
endfacet
facet normal 0.108862 -0.319078 -0.941456
outer loop
vertex 35.037319 25.640697 0.000000
vertex 45.435436 29.188293 -0.000000
vertex -18.739132 4.592664 0.915346
endloop
endfacet
facet normal 0.000000 0.000000 -1.000000
outer loop
vertex -18.739132 4.592664 0.915346
vertex -4.533961 -1.489401 0.915347
vertex -9.585269 -1.500852 0.915346
endloop
endfacet
facet normal 0.000000 0.000000 -1.000000
outer loop
vertex -17.276596 2.080493 0.915346
vertex -12.411074 -1.164130 0.915346
vertex -15.112137 0.075885 0.915346
endloop
endfacet
facet normal -0.000000 -0.000000 -1.000000
outer loop
vertex -18.739132 4.592664 0.915346
vertex -9.585269 -1.500852 0.915346
vertex -17.276596 2.080493 0.915346
endloop
endfacet
facet normal 0.082948 -0.253837 -0.963684
outer loop
vertex 19.263224 20.486074 -0.000000
vertex 35.037319 25.640697 0.000000
vertex -18.739132 4.592664 0.915346
endloop
endfacet
facet normal 0.000000 -0.000001 -1.000000
outer loop
vertex 37.130989 27.430836 -0.000000
vertex 42.478962 29.464909 0.000000
vertex 19.263224 20.486074 -0.000000
endloop
endfacet
facet normal -0.000000 0.000000 -1.000000
outer loop
vertex 17.485100 22.234114 -0.000000
vertex 39.617725 28.800018 0.000000
vertex 37.130989 27.430836 -0.000000
endloop
endfacet
facet normal -0.017666 -0.017610 -0.999689
outer loop
vertex -19.471922 7.291144 0.915346
vertex 10.414811 29.272453 -0.000000
vertex 13.933575 25.742405 -0.000000
endloop
endfacet
facet normal 0.000000 -0.000000 -1.000000
outer loop
vertex 17.485100 22.234114 -0.000000
vertex 37.130989 27.430836 -0.000000
vertex 19.263224 20.486074 -0.000000
endloop
endfacet
facet normal -0.017569 -0.017785 -0.999687
outer loop
vertex -19.471922 7.291144 0.915346
vertex 13.933575 25.742405 -0.000000
vertex 17.485100 22.234114 -0.000000
endloop
endfacet
facet normal -0.018381 -0.016802 -0.999690
outer loop
vertex 3.626577 36.483032 -0.000000
vertex 6.955038 32.841896 -0.000000
vertex -19.471922 7.291144 0.915346
endloop
endfacet
facet normal 0.000000 0.000000 -1.000000
outer loop
vertex -0.341042 40.247253 -0.000000
vertex 1.942149 38.424831 -0.000000
vertex 3.626577 36.483032 -0.000000
endloop
endfacet
facet normal -0.001849 -0.027735 -0.999614
outer loop
vertex -5.947755 41.445595 -0.000000
vertex -3.128349 41.257599 -0.000000
vertex -19.976860 9.390157 0.915346
endloop
endfacet
facet normal -0.017543 -0.018491 -0.999675
outer loop
vertex -19.976860 9.390157 0.915346
vertex -0.341042 40.247253 -0.000000
vertex 3.626577 36.483032 -0.000000
endloop
endfacet
facet normal -0.017544 -0.017846 -0.999687
outer loop
vertex -19.471922 7.291144 0.915346
vertex 17.485100 22.234114 -0.000000
vertex 19.263224 20.486074 -0.000000
endloop
endfacet
facet normal -0.030374 -0.007307 -0.999512
outer loop
vertex -19.976860 9.390157 0.915346
vertex 3.626577 36.483032 -0.000000
vertex -19.471922 7.291144 0.915346
endloop
endfacet
facet normal 0.002476 -0.029626 -0.999558
outer loop
vertex -8.535830 41.229332 -0.000000
vertex -5.947755 41.445595 -0.000000
vertex -19.976860 9.390157 0.915346
endloop
endfacet
facet normal 0.003079 -0.031585 -0.999496
outer loop
vertex -21.071785 11.041130 0.915346
vertex -13.507029 40.744709 -0.000000
vertex -8.535830 41.229332 -0.000000
endloop
endfacet
facet normal -0.023808 -0.029178 -0.999291
outer loop
vertex -22.685324 12.357719 0.915346
vertex -18.481714 40.276424 -0.000000
vertex -21.071785 11.041130 0.915346
endloop
endfacet
facet normal 0.003002 -0.033232 -0.999443
outer loop
vertex -28.434231 39.367451 -0.000000
vertex -23.457857 39.816936 -0.000000
vertex -22.685324 12.357719 0.915346
endloop
endfacet
facet normal -0.004506 -0.037131 -0.999300
outer loop
vertex -26.516077 13.460196 0.915346
vertex -33.409298 38.931141 -0.000000
vertex -24.586853 13.226081 0.915346
endloop
endfacet
facet normal -0.017128 -0.037506 -0.999150
outer loop
vertex -24.586853 13.226081 0.915346
vertex -28.434231 39.367451 -0.000000
vertex -22.685324 12.357719 0.915346
endloop
endfacet
facet normal -0.028099 -0.018636 -0.999431
outer loop
vertex -21.071785 11.041130 0.915346
vertex -8.535830 41.229332 -0.000000
vertex -19.976860 9.390157 0.915346
endloop
endfacet
facet normal 0.000000 -0.000000 -1.000000
outer loop
vertex -24.586853 13.226081 0.915346
vertex -22.685324 12.357719 0.915346
vertex -21.071785 11.041130 0.915346
endloop
endfacet
facet normal 0.004125 -0.034525 -0.999395
outer loop
vertex -41.091507 38.215244 -0.000000
vertex -38.370098 38.540390 -0.000000
vertex -26.516077 13.460196 0.915346
endloop
endfacet
facet normal 0.000000 0.000000 -1.000000
outer loop
vertex -26.516077 13.460196 0.915346
vertex -24.586853 13.226081 0.915346
vertex -21.071785 11.041130 0.915346
endloop
endfacet
facet normal -0.000000 -0.000000 -1.000000
outer loop
vertex -21.071785 11.041130 0.915346
vertex -19.976860 9.390157 0.915346
vertex -19.471922 7.291144 0.915346
endloop
endfacet
facet normal -0.021625 -0.005872 -0.999749
outer loop
vertex -19.471922 7.291144 0.915346
vertex 19.263224 20.486074 -0.000000
vertex -18.739132 4.592664 0.915346
endloop
endfacet
facet normal 0.013145 0.014193 -0.999813
outer loop
vertex -17.276596 2.080493 0.915346
vertex -15.112137 0.075885 0.915346
vertex -52.891964 -29.415201 0.000000
endloop
endfacet
facet normal 0.000001 0.000000 -1.000000
outer loop
vertex -21.071785 11.041130 0.915346
vertex -19.471922 7.291144 0.915346
vertex -18.739132 4.592664 0.915346
endloop
endfacet
facet normal 0.016963 0.009875 -0.999807
outer loop
vertex -18.739132 4.592664 0.915346
vertex -17.276596 2.080493 0.915346
vertex -52.891964 -29.415201 0.000000
endloop
endfacet
facet normal 0.000000 -0.000000 -1.000000
outer loop
vertex -50.971661 -27.197338 0.000000
vertex -55.433987 -30.958155 0.000000
vertex -49.789875 -24.503078 -0.000000
endloop
endfacet
facet normal 0.188309 -0.163045 -0.968481
outer loop
vertex -18.739132 4.592664 0.915346
vertex -52.891964 -29.415201 0.000000
vertex -50.971661 -27.197338 0.000000
endloop
endfacet
facet normal 0.000000 -0.000000 -1.000000
outer loop
vertex -26.516077 13.460196 0.915346
vertex -21.071785 11.041130 0.915346
vertex -18.739132 4.592664 0.915346
endloop
endfacet
facet normal 0.011922 -0.029938 -0.999481
outer loop
vertex -43.815548 37.130455 -0.000000
vertex -41.091507 38.215244 -0.000000
vertex -26.516077 13.460196 0.915346
endloop
endfacet
facet normal 0.028308 -0.018605 -0.999426
outer loop
vertex -47.717155 32.792633 -0.000000
vertex -46.091225 35.266510 -0.000000
vertex -28.416246 12.988968 0.915346
endloop
endfacet
facet normal 0.008114 -0.032719 -0.999432
outer loop
vertex -28.416246 12.988968 0.915346
vertex -43.815548 37.130455 -0.000000
vertex -26.516077 13.460196 0.915346
endloop
endfacet
facet normal 0.015224 0.013352 -0.999795
outer loop
vertex -26.516077 13.460196 0.915346
vertex -18.739132 4.592664 0.915346
vertex -50.971661 -27.197338 0.000000
endloop
endfacet
facet normal 0.000005 -0.000006 -1.000000
outer loop
vertex -49.789875 -24.503078 -0.000000
vertex -58.380322 -31.544128 0.000000
vertex -49.512375 -21.534719 -0.000015
endloop
endfacet
facet normal 0.136681 -0.059953 -0.988799
outer loop
vertex -26.516077 13.460196 0.915346
vertex -50.971661 -27.197338 0.000000
vertex -49.789875 -24.503078 -0.000000
endloop
endfacet
facet normal 0.037567 -0.009573 -0.999248
outer loop
vertex -48.454163 29.900459 -0.000000
vertex -47.717155 32.792633 -0.000000
vertex -28.416246 12.988968 0.915346
endloop
endfacet
facet normal -0.007049 0.028422 -0.999571
outer loop
vertex -28.416246 12.988968 0.915346
vertex -26.516077 13.460196 0.915346
vertex -49.789875 -24.503078 -0.000000
endloop
endfacet
facet normal -0.000000 -0.000001 -1.000000
outer loop
vertex -49.512375 -21.534719 -0.000015
vertex -61.185234 -31.251034 -0.000000
vertex -63.798889 -30.534313 -0.000000
endloop
endfacet
facet normal 0.051170 -0.004789 -0.998679
outer loop
vertex -28.416246 12.988968 0.915346
vertex -49.789875 -24.503078 -0.000000
vertex -49.512375 -21.534719 -0.000015
endloop
endfacet
facet normal 0.019901 -0.030510 -0.999336
outer loop
vertex -30.126360 11.873536 0.915346
vertex -48.454163 29.900459 -0.000000
vertex -28.416246 12.988968 0.915346
endloop
endfacet
facet normal 0.065439 0.017957 -0.997695
outer loop
vertex -47.525997 24.424623 -0.000000
vertex -48.233799 27.003994 -0.000000
vertex -30.126360 11.873536 0.915346
endloop
endfacet
facet normal 0.086319 0.032678 -0.995731
outer loop
vertex -31.604828 10.259953 0.915346
vertex -46.194363 20.907045 -0.000000
vertex -47.525997 24.424623 -0.000000
endloop
endfacet
facet normal 0.083953 0.028652 -0.996058
outer loop
vertex -44.106251 15.069367 -0.000000
vertex -44.885315 17.352118 -0.000000
vertex -31.604828 10.259953 0.915346
endloop
endfacet
facet normal 0.095783 0.022338 -0.995152
outer loop
vertex -33.008141 8.260403 0.915346
vertex -43.594048 12.873094 -0.000000
vertex -44.106251 15.069367 -0.000000
endloop
endfacet
facet normal 0.079475 -0.026866 -0.996475
outer loop
vertex -44.249756 8.956314 -0.000000
vertex -43.617577 10.826433 -0.000000
vertex -33.008141 8.260403 0.915346
endloop
endfacet
facet normal 0.077195 -0.061872 -0.995094
outer loop
vertex -45.500740 7.395506 -0.000000
vertex -44.249756 8.956314 -0.000000
vertex -33.008141 8.260403 0.915346
endloop
endfacet
facet normal 0.057511 -0.040362 -0.997529
outer loop
vertex -33.008141 8.260403 0.915346
vertex -44.106251 15.069367 -0.000000
vertex -31.604828 10.259953 0.915346
endloop
endfacet
facet normal 0.031644 -0.028994 -0.999079
outer loop
vertex -31.604828 10.259953 0.915346
vertex -47.525997 24.424623 -0.000000
vertex -30.126360 11.873536 0.915346
endloop
endfacet
facet normal -0.028715 0.044024 -0.998618
outer loop
vertex -30.126360 11.873536 0.915346
vertex -28.416246 12.988968 0.915346
vertex -49.512375 -21.534719 -0.000015
endloop
endfacet
facet normal -0.003584 0.005688 -0.999977
outer loop
vertex -49.512375 -21.534719 -0.000015
vertex -63.798889 -30.534313 -0.000000
vertex -50.150917 -18.744825 0.018144
endloop
endfacet
facet normal -0.036471 0.055955 -0.997767
outer loop
vertex -50.150917 -18.744825 0.018144
vertex -66.224136 -29.544834 -0.000000
vertex -51.130199 -16.299068 0.191097
endloop
endfacet
facet normal -0.091588 0.145335 -0.985134
outer loop
vertex -51.130199 -16.299068 0.191097
vertex -68.486786 -28.532322 -0.000000
vertex -52.122471 -14.128630 0.603550
endloop
endfacet
facet normal -0.055256 0.136221 -0.989136
outer loop
vertex -52.122471 -14.128630 0.603550
vertex -73.015152 -26.985985 0.000000
vertex -52.525269 -12.219086 0.889029
endloop
endfacet
facet normal 0.004768 0.055185 -0.998465
outer loop
vertex -52.525269 -12.219086 0.889029
vertex -77.684914 -26.130302 0.000000
vertex -82.581535 -25.707199 -0.000000
endloop
endfacet
facet normal 0.033936 -0.017719 -0.999267
outer loop
vertex -52.285713 -10.264160 0.915347
vertex -87.379890 -25.855986 0.000000
vertex -51.366779 -8.504216 0.915347
endloop
endfacet
facet normal 0.024898 0.010406 -0.999636
outer loop
vertex -52.525269 -12.219086 0.889029
vertex -82.581535 -25.707199 -0.000000
vertex -52.285713 -10.264160 0.915347
endloop
endfacet
facet normal -0.161383 0.112535 -0.980455
outer loop
vertex -51.130199 -16.299068 0.191097
vertex -52.122471 -14.128630 0.603550
vertex -52.525269 -12.219086 0.889029
endloop
endfacet
facet normal 0.025807 0.012413 -0.999590
outer loop
vertex -30.126360 11.873536 0.915346
vertex -49.512375 -21.534719 -0.000015
vertex -50.150917 -18.744825 0.018144
endloop
endfacet
facet normal 0.807258 0.356485 -0.470375
outer loop
vertex -50.150917 -18.744825 0.018144
vertex -51.130199 -16.299068 0.191097
vertex -52.525269 -12.219086 0.889029
endloop
endfacet
facet normal -0.033665 0.017578 -0.999279
outer loop
vertex -52.525269 -12.219086 0.889029
vertex -52.285713 -10.264160 0.915347
vertex -51.366779 -8.504216 0.915347
endloop
endfacet
facet normal -0.002923 0.057949 -0.998315
outer loop
vertex -51.366779 -8.504216 0.915347
vertex -92.361176 -26.341032 -0.000000
vertex -95.000961 -26.474174 0.000000
endloop
endfacet
facet normal 0.045303 -0.066031 -0.996789
outer loop
vertex -49.892757 -6.967342 0.915347
vertex -97.874840 -26.069614 -0.000000
vertex -48.012520 -5.677328 0.915347
endloop
endfacet
facet normal 0.034633 -0.033217 -0.998848
outer loop
vertex -51.366779 -8.504216 0.915347
vertex -95.000961 -26.474174 0.000000
vertex -49.892757 -6.967342 0.915347
endloop
endfacet
facet normal -0.183455 0.064160 -0.980932
outer loop
vertex -50.150917 -18.744825 0.018144
vertex -52.525269 -12.219086 0.889029
vertex -51.366779 -8.504216 0.915347
endloop
endfacet
facet normal -0.110471 0.101221 -0.988712
outer loop
vertex -31.604828 10.259953 0.915346
vertex -30.126360 11.873536 0.915346
vertex -50.150917 -18.744825 0.018144
endloop
endfacet
facet normal 0.080267 -0.111034 -0.990570
outer loop
vertex -47.264812 6.120239 -0.000000
vertex -45.500740 7.395506 -0.000000
vertex -33.008141 8.260403 0.915346
endloop
endfacet
facet normal -0.424025 0.297587 -0.855362
outer loop
vertex -33.008141 8.260403 0.915346
vertex -31.604828 10.259953 0.915346
vertex -50.150917 -18.744825 0.018144
endloop
endfacet
facet normal -0.080775 0.077472 -0.993717
outer loop
vertex -50.150917 -18.744825 0.018144
vertex -51.366779 -8.504216 0.915347
vertex -49.892757 -6.967342 0.915347
endloop
endfacet
facet normal 0.120355 -0.285724 -0.950724
outer loop
vertex -48.012520 -5.677328 0.915347
vertex -100.538689 -24.757025 -0.000000
vertex -72.049683 -12.756690 -0.000000
endloop
endfacet
facet normal -0.052832 0.077005 -0.995630
outer loop
vertex -50.150917 -18.744825 0.018144
vertex -49.892757 -6.967342 0.915347
vertex -48.012520 -5.677328 0.915347
endloop
endfacet
facet normal 0.091594 -0.192267 -0.977059
outer loop
vertex -51.612354 4.049109 -0.000000
vertex -47.264812 6.120239 -0.000000
vertex -33.008141 8.260403 0.915346
endloop
endfacet
facet normal 0.060527 -0.139302 -0.988398
outer loop
vertex -60.781403 0.056028 -0.000000
vertex -56.184505 2.053380 -0.000000
vertex -36.238392 4.225239 0.915346
endloop
endfacet
facet normal 0.059913 -0.047961 -0.997051
outer loop
vertex -36.238392 4.225239 0.915346
vertex -51.612354 4.049109 -0.000000
vertex -33.008141 8.260403 0.915346
endloop
endfacet
facet normal -0.318915 0.920020 -0.227721
outer loop
vertex -72.049683 -12.756690 -0.000000
vertex -73.925621 -13.406960 -0.000000
vertex -43.767452 -2.726454 0.915346
endloop
endfacet
facet normal 0.300324 -0.868577 -0.394182
outer loop
vertex -43.767452 -2.726454 0.915346
vertex -102.625145 -22.662012 -0.000000
vertex -70.408409 -11.522573 -0.000000
endloop
endfacet
facet normal -0.000000 0.000000 -1.000000
outer loop
vertex -70.408409 -11.522573 -0.000000
vertex -75.976440 -13.409962 -0.000000
vertex -78.205612 -12.894810 0.000000
endloop
endfacet
facet normal -0.000000 0.000000 -1.000000
outer loop
vertex -69.047256 -9.822226 -0.000000
vertex -103.975273 -20.047089 0.000000
vertex -80.492661 -12.159145 0.000000
endloop
endfacet
facet normal -0.000000 0.000000 -1.000000
outer loop
vertex -70.408409 -11.522573 -0.000000
vertex -78.205612 -12.894810 0.000000
vertex -69.047256 -9.822226 -0.000000
endloop
endfacet
facet normal 0.065638 -0.094425 -0.993366
outer loop
vertex -48.012520 -5.677328 0.915347
vertex -72.049683 -12.756690 -0.000000
vertex -43.767452 -2.726454 0.915346
endloop
endfacet
facet normal 0.046619 -0.037319 -0.998215
outer loop
vertex -43.767452 -2.726454 0.915346
vertex -70.408409 -11.522573 -0.000000
vertex -69.047256 -9.822226 -0.000000
endloop
endfacet
facet normal -0.000000 -0.000000 -1.000000
outer loop
vertex -69.047256 -9.822226 -0.000000
vertex -80.492661 -12.159145 0.000000
vertex -67.952560 -7.818052 -0.000000
endloop
endfacet
facet normal -0.000000 0.000000 -1.000000
outer loop
vertex -67.952560 -7.818052 -0.000000
vertex -104.471825 -17.158436 0.000000
vertex -85.116234 -10.400576 0.000000
endloop
endfacet
facet normal 0.220958 -0.941096 -0.255961
outer loop
vertex -39.880592 0.583577 0.915346
vertex -104.078331 -14.240314 -0.000000
vertex -66.914421 -5.514679 -0.000000
endloop
endfacet
facet normal -0.032186 0.213911 -0.976323
outer loop
vertex -67.952560 -7.818052 -0.000000
vertex -85.116234 -10.400576 0.000000
vertex -39.880592 0.583577 0.915346
endloop
endfacet
facet normal 0.042714 -0.023331 -0.998815
outer loop
vertex -43.767452 -2.726454 0.915346
vertex -69.047256 -9.822226 -0.000000
vertex -67.952560 -7.818052 -0.000000
endloop
endfacet
facet normal -0.053615 0.077129 -0.995578
outer loop
vertex -50.150917 -18.744825 0.018144
vertex -48.012520 -5.677328 0.915347
vertex -43.767452 -2.726454 0.915346
endloop
endfacet
facet normal -0.194166 0.155435 -0.968576
outer loop
vertex -36.238392 4.225239 0.915346
vertex -33.008141 8.260403 0.915346
vertex -50.150917 -18.744825 0.018144
endloop
endfacet
facet normal 0.056810 -0.116734 -0.991537
outer loop
vertex -63.201965 -1.121965 -0.000000
vertex -60.781403 0.056028 -0.000000
vertex -36.238392 4.225239 0.915346
endloop
endfacet
facet normal 0.000000 0.000000 -1.000000
outer loop
vertex -92.404289 -7.875920 0.000000
vertex -98.141930 -8.059435 -0.000000
vertex -95.236481 -7.518037 0.000000
endloop
endfacet
facet normal 0.195649 -0.979900 -0.038960
outer loop
vertex -95.236481 -7.518037 0.000000
vertex -63.201965 -1.121965 -0.000000
vertex -36.238392 4.225239 0.915346
endloop
endfacet
facet normal 0.050126 -0.058861 -0.997007
outer loop
vertex -43.767452 -2.726454 0.915346
vertex -67.952560 -7.818052 -0.000000
vertex -39.880592 0.583577 0.915346
endloop
endfacet
facet normal -0.085948 0.509522 -0.856154
outer loop
vertex -39.880592 0.583577 0.915346
vertex -66.914421 -5.514679 -0.000000
vertex -102.802505 -11.568443 0.000000
endloop
endfacet
facet normal 0.000001 -0.000002 -1.000000
outer loop
vertex -102.802505 -11.568443 0.000000
vertex -89.868324 -8.621297 -0.000000
vertex -65.444412 -3.120653 -0.000000
endloop
endfacet
facet normal -0.000000 0.000001 -1.000000
outer loop
vertex -65.444412 -3.120653 -0.000000
vertex -100.748360 -9.441137 0.000000
vertex -92.404289 -7.875920 0.000000
endloop
endfacet
facet normal 0.006018 0.047623 -0.998847
outer loop
vertex -92.404289 -7.875920 0.000000
vertex -95.236481 -7.518037 0.000000
vertex -36.238392 4.225239 0.915346
endloop
endfacet
facet normal -0.071758 0.084263 -0.993856
outer loop
vertex -50.150917 -18.744825 0.018144
vertex -43.767452 -2.726454 0.915346
vertex -39.880592 0.583577 0.915346
endloop
endfacet
facet normal 0.090834 -0.401691 -0.911259
outer loop
vertex -39.880592 0.583577 0.915346
vertex -102.802505 -11.568443 0.000000
vertex -65.444412 -3.120653 -0.000000
endloop
endfacet
facet normal -0.067747 0.384088 -0.920808
outer loop
vertex -65.444412 -3.120653 -0.000000
vertex -92.404289 -7.875920 0.000000
vertex -36.238392 4.225239 0.915346
endloop
endfacet
facet normal -0.098062 0.098076 -0.990336
outer loop
vertex -36.238392 4.225239 0.915346
vertex -50.150917 -18.744825 0.018144
vertex -39.880592 0.583577 0.915346
endloop
endfacet
facet normal 0.041802 -0.041808 -0.998251
outer loop
vertex -39.880592 0.583577 0.915346
vertex -65.444412 -3.120653 -0.000000
vertex -36.238392 4.225239 0.915346
endloop
endfacet
endsolid Exported from Blender-2.82 (sub 7)
