solid Exported from Blender-2.82 (sub 7)
facet normal -0.000000 0.000000 -1.000000
outer loop
vertex -61.338112 49.944149 -0.000000
vertex -61.423210 51.966171 -0.000000
vertex -60.800812 53.888577 -0.000000
endloop
endfacet
facet normal -0.000000 0.000000 -1.000000
outer loop
vertex -60.800812 53.888577 -0.000000
vertex -59.635792 55.523190 -0.000000
vertex -58.035690 56.730579 -0.000000
endloop
endfacet
facet normal 0.000000 -0.000001 -1.000000
outer loop
vertex -58.035690 56.730579 -0.000000
vertex -56.139549 57.379837 -0.000000
vertex -54.289684 57.265820 -0.000000
endloop
endfacet
facet normal 0.000000 0.000001 -1.000000
outer loop
vertex -54.289684 57.265820 -0.000000
vertex -52.200336 56.431305 -0.000000
vertex -50.032230 55.373432 -0.000000
endloop
endfacet
facet normal 0.000000 0.000000 -1.000000
outer loop
vertex -50.032230 55.373432 -0.000000
vertex -45.678879 53.035370 -0.000000
vertex -41.344231 50.587284 -0.000000
endloop
endfacet
facet normal -0.000009 -0.000016 -1.000000
outer loop
vertex -41.344231 50.587284 -0.000000
vertex -37.017521 48.095951 -0.000000
vertex -32.686329 45.593674 -0.000000
endloop
endfacet
facet normal 0.000000 0.000000 -1.000000
outer loop
vertex -50.032230 55.373432 -0.000000
vertex -41.344231 50.587284 -0.000000
vertex -32.686329 45.593674 -0.000000
endloop
endfacet
facet normal -0.000000 0.000000 -1.000000
outer loop
vertex -58.035690 56.730579 -0.000000
vertex -54.289684 57.265820 -0.000000
vertex -50.032230 55.373432 -0.000000
endloop
endfacet
facet normal 0.000000 0.000000 -1.000000
outer loop
vertex -61.338112 49.944149 -0.000000
vertex -60.800812 53.888577 -0.000000
vertex -58.035690 56.730579 -0.000000
endloop
endfacet
facet normal -0.000001 -0.000000 -1.000000
outer loop
vertex -59.441818 42.933075 -0.000000
vertex -60.697067 47.125679 -0.000000
vertex -61.338112 49.944149 -0.000000
endloop
endfacet
facet normal 0.000000 -0.000000 -1.000000
outer loop
vertex -55.414539 34.146126 -0.000000
vertex -57.689625 38.448837 -0.000000
vertex -59.441818 42.933075 -0.000000
endloop
endfacet
facet normal -0.000000 -0.000000 -1.000000
outer loop
vertex -50.016670 25.974871 -0.000000
vertex -52.830395 29.959394 -0.000000
vertex -55.414539 34.146126 -0.000000
endloop
endfacet
facet normal -0.000000 -0.000000 -1.000000
outer loop
vertex -43.403412 18.838062 -0.000000
vertex -46.871136 22.267433 -0.000000
vertex -50.016670 25.974871 -0.000000
endloop
endfacet
facet normal 0.000000 -0.000000 -1.000000
outer loop
vertex -35.738201 12.780941 -0.000000
vertex -39.678272 15.665850 -0.000000
vertex -43.403412 18.838062 -0.000000
endloop
endfacet
facet normal 0.000000 0.000000 -1.000000
outer loop
vertex -27.261011 7.892841 -0.000000
vertex -31.587547 10.193311 -0.000000
vertex -35.738201 12.780941 -0.000000
endloop
endfacet
facet normal -0.000000 -0.000000 -1.000000
outer loop
vertex -18.192724 4.420691 -0.000000
vertex -22.809881 5.901629 0.000000
vertex -27.261011 7.892841 -0.000000
endloop
endfacet
facet normal -0.000000 -0.000000 -1.000000
outer loop
vertex -8.602210 2.212261 -0.000000
vertex -13.421516 3.195183 -0.000000
vertex -18.192724 4.420691 -0.000000
endloop
endfacet
facet normal -0.000000 -0.000001 -1.000000
outer loop
vertex -3.800190 1.562927 -0.000000
vertex -6.189172 1.831159 -0.000000
vertex -8.602210 2.212261 -0.000000
endloop
endfacet
facet normal 0.000000 0.000001 -1.000000
outer loop
vertex 0.991667 1.500000 -0.000000
vertex -1.522222 1.500000 -0.000000
vertex -3.800190 1.562927 -0.000000
endloop
endfacet
facet normal 0.000000 0.683941 -0.729537
outer loop
vertex 13.500000 1.500000 -0.000000
vertex 8.500000 1.500000 -0.000000
vertex 3.500000 1.500000 0.000000
endloop
endfacet
facet normal 0.000000 0.000006 -1.000000
outer loop
vertex 3.500000 1.500000 0.000000
vertex 0.991667 1.500000 -0.000000
vertex -3.800190 1.562927 -0.000000
endloop
endfacet
facet normal -0.000000 -0.000000 -1.000000
outer loop
vertex -3.800190 1.562927 -0.000000
vertex -8.602210 2.212261 -0.000000
vertex -18.192724 4.420691 -0.000000
endloop
endfacet
facet normal -0.000000 -0.000000 -1.000000
outer loop
vertex -18.192724 4.420691 -0.000000
vertex -27.261011 7.892841 -0.000000
vertex -35.738201 12.780941 -0.000000
endloop
endfacet
facet normal 0.000000 0.000000 -1.000000
outer loop
vertex -35.738201 12.780941 -0.000000
vertex -43.403412 18.838062 -0.000000
vertex -50.016670 25.974871 -0.000000
endloop
endfacet
facet normal -0.000000 -0.000000 -1.000000
outer loop
vertex -50.016670 25.974871 -0.000000
vertex -55.414539 34.146126 -0.000000
vertex -59.441818 42.933075 -0.000000
endloop
endfacet
facet normal 0.000000 0.000000 -1.000000
outer loop
vertex -59.441818 42.933075 -0.000000
vertex -61.338112 49.944149 -0.000000
vertex -58.035690 56.730579 -0.000000
endloop
endfacet
facet normal -0.000000 -0.000000 -1.000000
outer loop
vertex -58.035690 56.730579 -0.000000
vertex -50.032230 55.373432 -0.000000
vertex -32.686329 45.593674 -0.000000
endloop
endfacet
facet normal -0.000000 -0.000000 -1.000000
outer loop
vertex -58.035690 56.730579 -0.000000
vertex -32.686329 45.593674 -0.000000
vertex -28.336994 43.104427 -0.000000
endloop
endfacet
facet normal 0.000000 0.000000 -1.000000
outer loop
vertex -50.016670 25.974871 -0.000000
vertex -59.441818 42.933075 -0.000000
vertex -58.035690 56.730579 -0.000000
endloop
endfacet
facet normal -0.000000 -0.000000 -1.000000
outer loop
vertex -18.192724 4.420691 -0.000000
vertex -35.738201 12.780941 -0.000000
vertex -50.016670 25.974871 -0.000000
endloop
endfacet
facet normal 0.000000 0.000000 -1.000000
outer loop
vertex 3.500000 1.500000 0.000000
vertex -3.800190 1.562927 -0.000000
vertex -18.192724 4.420691 -0.000000
endloop
endfacet
facet normal 0.000000 0.424434 -0.905459
outer loop
vertex 18.500000 1.500000 -0.000000
vertex 13.500000 1.500000 -0.000000
vertex 3.500000 1.500000 0.000000
endloop
endfacet
facet normal -0.000000 0.000003 -1.000000
outer loop
vertex 30.792923 1.576607 -0.000000
vertex 28.000000 1.499960 -0.000000
vertex 23.500002 1.500000 -0.000000
endloop
endfacet
facet normal 0.000000 0.228191 -0.973616
outer loop
vertex 23.500002 1.500000 -0.000000
vertex 18.500000 1.500000 -0.000000
vertex 3.500000 1.500000 0.000000
endloop
endfacet
facet normal 0.000000 0.000000 -1.000000
outer loop
vertex 3.500000 1.500000 0.000000
vertex -18.192724 4.420691 -0.000000
vertex -50.016670 25.974871 -0.000000
endloop
endfacet
facet normal 0.000000 0.000000 -1.000000
outer loop
vertex -50.016670 25.974871 -0.000000
vertex -58.035690 56.730579 -0.000000
vertex -28.336994 43.104427 -0.000000
endloop
endfacet
facet normal -0.000000 0.000000 -1.000000
outer loop
vertex -50.016670 25.974871 -0.000000
vertex -28.336994 43.104427 -0.000000
vertex -23.948160 40.656616 -0.000000
endloop
endfacet
facet normal -0.000000 -0.000000 -1.000000
outer loop
vertex 23.500002 1.500000 -0.000000
vertex 3.500000 1.500000 0.000000
vertex -50.016670 25.974871 -0.000000
endloop
endfacet
facet normal 0.000000 -0.000000 -1.000000
outer loop
vertex 32.730034 2.150723 -0.000000
vertex 30.792923 1.576607 -0.000000
vertex 23.500002 1.500000 -0.000000
endloop
endfacet
facet normal -0.000000 0.000000 -1.000000
outer loop
vertex 35.640476 4.891084 -0.000000
vertex 34.393513 3.300585 -0.000000
vertex 32.730034 2.150723 -0.000000
endloop
endfacet
facet normal -0.000000 -0.000000 -1.000000
outer loop
vertex 16.077225 15.406825 -0.000000
vertex 36.343643 6.770796 -0.000000
vertex 35.640476 4.891084 -0.000000
endloop
endfacet
facet normal -0.000000 -0.000000 -1.000000
outer loop
vertex 21.583462 14.500003 -0.000000
vertex 36.443077 8.781994 -0.000000
vertex 18.904457 14.580048 -0.000000
endloop
endfacet
facet normal -0.000000 -0.000000 -1.000000
outer loop
vertex 16.077225 15.406825 -0.000000
vertex 35.640476 4.891084 -0.000000
vertex 32.730034 2.150723 -0.000000
endloop
endfacet
facet normal -0.000000 0.000000 -1.000000
outer loop
vertex 21.583462 14.500003 -0.000000
vertex 18.904457 14.580048 -0.000000
vertex 16.077225 15.406825 -0.000000
endloop
endfacet
facet normal -0.000000 -0.000000 -1.000000
outer loop
vertex 24.086468 14.500000 -0.000000
vertex 35.859211 10.708566 -0.000000
vertex 13.629809 17.052362 -0.000000
endloop
endfacet
facet normal -0.000000 -0.000000 -1.000000
outer loop
vertex 13.629809 17.052362 -0.000000
vertex 21.583462 14.500003 -0.000000
vertex 16.077225 15.406825 -0.000000
endloop
endfacet
facet normal 0.000000 0.000000 -1.000000
outer loop
vertex 16.077225 15.406825 -0.000000
vertex 32.730034 2.150723 -0.000000
vertex 23.500002 1.500000 -0.000000
endloop
endfacet
facet normal -0.000000 -0.000000 -1.000000
outer loop
vertex 23.500002 1.500000 -0.000000
vertex -50.016670 25.974871 -0.000000
vertex -23.948160 40.656616 -0.000000
endloop
endfacet
facet normal 0.000000 0.000000 -1.000000
outer loop
vertex 23.500002 1.500000 -0.000000
vertex -23.948160 40.656616 -0.000000
vertex -19.472094 38.300385 -0.000000
endloop
endfacet
facet normal 0.000000 0.000000 -1.000000
outer loop
vertex 13.629809 17.052362 -0.000000
vertex 16.077225 15.406825 -0.000000
vertex 23.500002 1.500000 -0.000000
endloop
endfacet
facet normal 0.000000 0.000000 -1.000000
outer loop
vertex 26.586468 14.500000 -0.000000
vertex 24.086468 14.500000 -0.000000
vertex 13.629809 17.052362 -0.000000
endloop
endfacet
facet normal 0.000000 -0.000000 -1.000000
outer loop
vertex 29.069216 14.497266 -0.000000
vertex 34.735935 12.379189 -0.000000
vertex 26.586468 14.500000 -0.000000
endloop
endfacet
facet normal 0.000000 0.000000 -1.000000
outer loop
vertex 31.276783 14.353601 -0.000000
vertex 33.158344 13.635870 -0.000000
vertex 29.069216 14.497266 -0.000000
endloop
endfacet
facet normal 0.000000 0.000000 -1.000000
outer loop
vertex 11.804108 19.345190 -0.000000
vertex 31.276783 14.353601 -0.000000
vertex 29.069216 14.497266 -0.000000
endloop
endfacet
facet normal 0.000000 0.000000 -1.000000
outer loop
vertex 29.069216 14.497266 -0.000000
vertex 26.586468 14.500000 -0.000000
vertex 13.629809 17.052362 -0.000000
endloop
endfacet
facet normal 0.000000 0.000000 -1.000000
outer loop
vertex 13.629809 17.052362 -0.000000
vertex 23.500002 1.500000 -0.000000
vertex -19.472094 38.300385 -0.000000
endloop
endfacet
facet normal -0.000000 -0.000000 -1.000000
outer loop
vertex 13.629809 17.052362 -0.000000
vertex -19.472094 38.300385 -0.000000
vertex -17.169765 37.180145 -0.000000
endloop
endfacet
facet normal -0.000000 0.000000 -1.000000
outer loop
vertex 11.804108 19.345190 -0.000000
vertex 29.069216 14.497266 -0.000000
vertex 13.629809 17.052362 -0.000000
endloop
endfacet
facet normal 0.000000 0.000000 -1.000000
outer loop
vertex 11.804108 19.345190 -0.000000
vertex 13.629809 17.052362 -0.000000
vertex -17.169765 37.180145 -0.000000
endloop
endfacet
facet normal -0.000000 -0.000000 -1.000000
outer loop
vertex 11.804108 19.345190 -0.000000
vertex -17.169765 37.180145 -0.000000
vertex -14.723043 36.170158 -0.000000
endloop
endfacet
facet normal 0.000000 0.000000 -1.000000
outer loop
vertex 10.737825 22.086000 -0.000000
vertex 11.804108 19.345190 -0.000000
vertex -14.723043 36.170158 -0.000000
endloop
endfacet
facet normal 0.000000 0.000000 -1.000000
outer loop
vertex 10.737825 22.086000 -0.000000
vertex -14.723043 36.170158 -0.000000
vertex -11.982939 35.559601 -0.000000
endloop
endfacet
facet normal -0.000001 -0.000000 -1.000000
outer loop
vertex 10.427846 29.703482 -0.000000
vertex 10.495096 27.387875 -0.000000
vertex 10.497974 24.862741 -0.000000
endloop
endfacet
facet normal -0.000000 -0.000000 -1.000000
outer loop
vertex 10.497974 24.862741 -0.000000
vertex 10.737825 22.086000 -0.000000
vertex -11.982939 35.559601 -0.000000
endloop
endfacet
facet normal 0.000000 0.000000 -1.000000
outer loop
vertex -9.337272 35.500000 -0.000000
vertex -4.337264 35.500000 -0.000000
vertex 0.662740 35.500000 -0.000000
endloop
endfacet
facet normal -0.000000 -0.000000 -1.000000
outer loop
vertex 10.497974 24.862741 -0.000000
vertex -11.982939 35.559601 -0.000000
vertex -9.337272 35.500000 -0.000000
endloop
endfacet
facet normal 0.000000 0.000000 -1.000000
outer loop
vertex 9.917251 31.663992 -0.000000
vertex 10.427846 29.703482 -0.000000
vertex 10.497974 24.862741 -0.000000
endloop
endfacet
facet normal -0.000000 -0.000000 -1.000000
outer loop
vertex 7.205335 34.587921 -0.000000
vertex 8.788441 33.334339 -0.000000
vertex 9.917251 31.663992 -0.000000
endloop
endfacet
facet normal 0.000000 0.000000 -1.000000
outer loop
vertex 3.133281 35.500290 -0.000000
vertex 5.326194 35.327003 -0.000000
vertex 7.205335 34.587921 -0.000000
endloop
endfacet
facet normal 0.000000 -0.000000 -1.000000
outer loop
vertex 10.497974 24.862741 -0.000000
vertex -9.337272 35.500000 -0.000000
vertex 0.662740 35.500000 -0.000000
endloop
endfacet
facet normal 0.000000 -0.000000 -1.000000
outer loop
vertex 0.662740 35.500000 -0.000000
vertex 3.133281 35.500290 -0.000000
vertex 7.205335 34.587921 -0.000000
endloop
endfacet
facet normal 0.000000 0.000000 -1.000000
outer loop
vertex 7.205335 34.587921 -0.000000
vertex 9.917251 31.663992 -0.000000
vertex 10.497974 24.862741 -0.000000
endloop
endfacet
facet normal 0.000000 0.000000 -1.000000
outer loop
vertex 0.662740 35.500000 -0.000000
vertex 7.205335 34.587921 -0.000000
vertex 10.497974 24.862741 -0.000000
endloop
endfacet
endsolid Exported from Blender-2.82 (sub 7)
